<svg width="167" height="40" viewBox="0 0 167 40" fill="none" xmlns="http://www.w3.org/2000/svg">
<path d="M59.744 29.216C58.656 29.216 57.68 29.024 56.816 28.64C55.952 28.24 55.264 27.704 54.752 27.032C54.256 26.36 53.984 25.616 53.936 24.8H57.32C57.384 25.312 57.632 25.736 58.064 26.072C58.512 26.408 59.064 26.576 59.72 26.576C60.36 26.576 60.856 26.448 61.208 26.192C61.576 25.936 61.76 25.608 61.76 25.208C61.76 24.776 61.536 24.456 61.088 24.248C60.656 24.024 59.96 23.784 59 23.528C58.008 23.288 57.192 23.04 56.552 22.784C55.928 22.528 55.384 22.136 54.92 21.608C54.472 21.08 54.248 20.368 54.248 19.472C54.248 18.736 54.456 18.064 54.872 17.456C55.304 16.848 55.912 16.368 56.696 16.016C57.496 15.664 58.432 15.488 59.504 15.488C61.088 15.488 62.352 15.888 63.296 16.688C64.24 17.472 64.76 18.536 64.856 19.88H61.64C61.592 19.352 61.368 18.936 60.968 18.632C60.584 18.312 60.064 18.152 59.408 18.152C58.8 18.152 58.328 18.264 57.992 18.488C57.672 18.712 57.512 19.024 57.512 19.424C57.512 19.872 57.736 20.216 58.184 20.456C58.632 20.68 59.328 20.912 60.272 21.152C61.232 21.392 62.024 21.64 62.648 21.896C63.272 22.152 63.808 22.552 64.256 23.096C64.72 23.624 64.96 24.328 64.976 25.208C64.976 25.976 64.76 26.664 64.328 27.272C63.912 27.88 63.304 28.36 62.504 28.712C61.72 29.048 60.8 29.216 59.744 29.216Z" fill="white"/>
<path d="M71.6461 18.464V24.896C71.6461 25.344 71.7501 25.672 71.9581 25.88C72.1821 26.072 72.5501 26.168 73.0621 26.168H74.6221V29H72.5101C69.6781 29 68.2621 27.624 68.2621 24.872V18.464H66.6781V15.704H68.2621V12.416H71.6461V15.704H74.6221V18.464H71.6461Z" fill="white"/>
<path d="M99.2696 15.512C100.902 15.512 102.214 16.016 103.206 17.024C104.214 18.016 104.718 19.408 104.718 21.2V29H101.358V21.656C101.358 20.616 101.094 19.824 100.566 19.28C100.038 18.72 99.3176 18.44 98.4056 18.44C97.4936 18.44 96.7656 18.72 96.2216 19.28C95.6936 19.824 95.4296 20.616 95.4296 21.656V29H92.0696V21.656C92.0696 20.616 91.8056 19.824 91.2776 19.28C90.7496 18.72 90.0296 18.44 89.1176 18.44C88.1896 18.44 87.4536 18.72 86.9096 19.28C86.3816 19.824 86.1176 20.616 86.1176 21.656V29H82.7576V15.704H86.1176V17.312C86.5496 16.752 87.1016 16.312 87.7736 15.992C88.4616 15.672 89.2136 15.512 90.0296 15.512C91.0696 15.512 91.9976 15.736 92.8136 16.184C93.6296 16.616 94.2616 17.24 94.7096 18.056C95.1416 17.288 95.7656 16.672 96.5816 16.208C97.4136 15.744 98.3096 15.512 99.2696 15.512Z" fill="white"/>
<path d="M113.81 29.216C112.53 29.216 111.378 28.936 110.354 28.376C109.33 27.8 108.522 26.992 107.93 25.952C107.354 24.912 107.066 23.712 107.066 22.352C107.066 20.992 107.362 19.792 107.954 18.752C108.562 17.712 109.386 16.912 110.426 16.352C111.466 15.776 112.626 15.488 113.906 15.488C115.186 15.488 116.346 15.776 117.386 16.352C118.426 16.912 119.242 17.712 119.834 18.752C120.442 19.792 120.746 20.992 120.746 22.352C120.746 23.712 120.434 24.912 119.81 25.952C119.202 26.992 118.37 27.8 117.314 28.376C116.274 28.936 115.106 29.216 113.81 29.216ZM113.81 26.288C114.418 26.288 114.986 26.144 115.514 25.856C116.058 25.552 116.49 25.104 116.81 24.512C117.13 23.92 117.29 23.2 117.29 22.352C117.29 21.088 116.954 20.12 116.282 19.448C115.626 18.76 114.818 18.416 113.858 18.416C112.898 18.416 112.09 18.76 111.434 19.448C110.794 20.12 110.474 21.088 110.474 22.352C110.474 23.616 110.786 24.592 111.41 25.28C112.05 25.952 112.85 26.288 113.81 26.288Z" fill="white"/>
<path d="M130.579 15.512C132.163 15.512 133.443 16.016 134.419 17.024C135.395 18.016 135.883 19.408 135.883 21.2V29H132.523V21.656C132.523 20.6 132.259 19.792 131.731 19.232C131.203 18.656 130.483 18.368 129.571 18.368C128.643 18.368 127.907 18.656 127.363 19.232C126.835 19.792 126.571 20.6 126.571 21.656V29H123.211V15.704H126.571V17.36C127.019 16.784 127.587 16.336 128.275 16.016C128.979 15.68 129.747 15.512 130.579 15.512Z" fill="white"/>
<path d="M151.438 22.064C151.438 22.544 151.406 22.976 151.342 23.36H141.622C141.702 24.32 142.038 25.072 142.63 25.616C143.222 26.16 143.95 26.432 144.814 26.432C146.062 26.432 146.95 25.896 147.478 24.824H151.102C150.718 26.104 149.982 27.16 148.894 27.992C147.806 28.808 146.47 29.216 144.886 29.216C143.606 29.216 142.454 28.936 141.43 28.376C140.422 27.8 139.63 26.992 139.054 25.952C138.494 24.912 138.214 23.712 138.214 22.352C138.214 20.976 138.494 19.768 139.054 18.728C139.614 17.688 140.398 16.888 141.406 16.328C142.414 15.768 143.574 15.488 144.886 15.488C146.15 15.488 147.278 15.76 148.27 16.304C149.278 16.848 150.054 17.624 150.598 18.632C151.158 19.624 151.438 20.768 151.438 22.064ZM147.958 21.104C147.942 20.24 147.63 19.552 147.022 19.04C146.414 18.512 145.67 18.248 144.79 18.248C143.958 18.248 143.254 18.504 142.678 19.016C142.118 19.512 141.774 20.208 141.646 21.104H147.958Z" fill="white"/>
<path d="M166.61 15.704L158.378 35.288H154.802L157.682 28.664L152.354 15.704H156.122L159.554 24.992L163.034 15.704H166.61Z" fill="white"/>
<path d="M34.1422 5.85781C30.3647 2.08031 25.3422 0 20 0C14.6578 0 9.63531 2.08031 5.85781 5.85781C2.08031 9.63531 0 14.6578 0 20C0 25.3422 2.08039 30.3646 5.85781 34.1422C9.63523 37.9198 14.6578 40 20 40C25.3422 40 30.3647 37.9197 34.1422 34.1422C37.9197 30.3647 40 25.3422 40 20C40 14.6578 37.9196 9.63539 34.1422 5.85781Z" fill="#33CC95"/>
<g clip-path="url(#clip0_35212_417)">
<path d="M20.5714 8V33.1429" stroke="white" stroke-width="2" stroke-linecap="round" stroke-linejoin="round"/>
<path d="M26.2857 12.5714H17.7143C16.6534 12.5714 15.636 12.9929 14.8859 13.743C14.1357 14.4931 13.7143 15.5106 13.7143 16.5714C13.7143 17.6323 14.1357 18.6497 14.8859 19.3999C15.636 20.15 16.6534 20.5714 17.7143 20.5714H23.4286C24.4894 20.5714 25.5069 20.9929 26.257 21.743C27.0072 22.4932 27.4286 23.5106 27.4286 24.5714C27.4286 25.6323 27.0072 26.6497 26.257 27.3999C25.5069 28.15 24.4894 28.5714 23.4286 28.5714H13.7143" stroke="white" stroke-width="2" stroke-linecap="round" stroke-linejoin="round"/>
</g>
<defs>
<clipPath id="clip0_35212_417">
<rect width="27.4286" height="27.4286" fill="white" transform="translate(6.85715 6.85714)"/>
</clipPath>
</defs>
</svg>
